<svg xmlns="http://www.w3.org/2000/svg" viewBox="0 0 48 48">
  <path fill="#212121" d="M23.697,37.56h1.18c0.84,0,1.631-0.392,2.139-1.061l7.485-9.847l7.485,9.847	c0.508,0.668,1.299,1.061,2.139,1.061h1.18L35.756,25l9.549-12.56h-1.18c-0.84,0-1.631,0.392-2.139,1.061L34.5,23.347l-7.485-9.847	c-0.508-0.668-1.299-1.061-2.139-1.061h-1.18l9.549,12.56L23.697,37.56z"/>
  <path fill="#212121" d="M24,26v-3c0-6.675-5.945-11.961-12.829-10.852C5.812,13.011,2,17.857,2,23.284L2,26H24z M22,24H4v-0.716	c0-4.343,3.088-8.206,7.371-8.853C17.061,13.597,22,18.268,22,24V24z"/>
</svg> 