<svg xmlns="http://www.w3.org/2000/svg" viewBox="0 0 48 48">
  <path fill="#fff" d="M44.083,29.79c-0.183-0.829-0.935-1.796-2.452-1.796c-0.31,0-0.649,0.039-1.035,0.119c-0.708,0.146-1.311,0.217-1.842,0.241c4.133-7.04,6.816-16.819,4.159-20.214c-3.501-4.473-8.214-5.141-10.711-5.141L31.967,3c-0.929,0.015-1.893,0.129-2.863,0.339l-3.583,0.774C25.033,4.052,24.536,4.009,24.018,4l-0.03,0l-0.016,0l-0.152-0.001c-1.593,0-3.046,0.338-4.341,0.973l-1.251-0.493c-1.72-0.678-4.308-1.485-6.868-1.485c-0.144,0-0.287,0.003-0.431,0.008C8.407,3.093,6.241,4.05,4.664,5.769C2.696,7.915,1.8,11.054,2.003,15.1C2.013,15.309,4.461,36,11.4,36h0.025l0.064-0.001c0.901-0.022,1.76-0.384,2.563-1.077c0.613,0.46,1.406,0.732,2.145,0.732c0.376,0,0.753-0.077,1.118-0.23c1.266-0.531,2.053-1.641,2.104-2.943c0.534,0.305,1.111,0.461,1.701,0.461c0.178,0,0.357-0.019,0.533-0.058c1.325-0.293,2.275-1.414,2.501-2.856c0.563,0.147,1.125,0.221,1.676,0.221c0.255,0,0.509-0.024,0.759-0.072c2.811-0.538,4.001-3.258,4.001-5.243c0-0.385-0.069-0.772-0.206-1.152c0.368,0.134,0.724,0.2,1.059,0.2c0.417,0,0.785-0.092,1.095-0.275c0.754-0.447,1.237-1.387,1.237-2.414c0-0.567-0.177-1.145-0.52-1.699c1.037-2.436,1.941-4.77,2.281-5.611c0.896,0.766,3.681,3.352,4.425,7.241c-0.432,0.781-0.824,1.609-1.173,2.475c-1.544,3.82-1.962,8.243-1.972,8.343c-0.017,0.166,0.041,0.331,0.158,0.456c0.117,0.125,0.279,0.196,0.45,0.196h0.009c0.343,0,0.636-0.257,0.677-0.601c0.002-0.022,0.427-4.61,2.062-8.644c0.298-0.736,0.623-1.441,0.965-2.111c0.426,0.856,0.91,1.947,1.347,3.301c0.742,2.303,1.01,3.78,1.021,3.836c0.042,0.239,0.249,0.411,0.493,0.411c0.034,0,0.068-0.003,0.103-0.01c0.272-0.048,0.454-0.308,0.406-0.58c-0.004-0.024-0.436-2.483-1.523-5.508C44.378,33.133,44.266,30.62,44.083,29.79z"/>
  <path fill="#0277bd" d="M33.701,21.926c-0.147-0.076-0.299-0.115-0.451-0.115c-0.123,0-0.244,0.023-0.359,0.068c-0.274,0.107-0.493,0.321-0.604,0.587c-0.627,1.497-1.526,3.97-2.545,6.223c-0.513-0.887-0.89-1.96-0.89-3.037c0-0.155,0.012-0.315,0.036-0.482c0.046-0.32-0.177-0.616-0.497-0.662c-0.317-0.047-0.616,0.177-0.662,0.497c-0.032,0.223-0.048,0.437-0.048,0.646c0,2.727,1.834,5.114,4.079,5.635c0.082,0.017,0.165,0.025,0.247,0.025c0.177,0,0.351-0.046,0.505-0.135c0.226-0.129,0.382-0.338,0.43-0.578c0.169-0.841,1.754-4.018,2.694-6.228C36.088,23.725,34.982,22.577,33.701,21.926z"/>
  <path fill="#0277bd" d="M42.22,28.263c-0.34-0.849-0.681-1.459-0.963-1.898c0.031-0.086,0.062-0.171,0.093-0.255c0.109-0.302,0.219-0.604,0.343-0.908c0.011-0.027,0.02-0.055,0.028-0.083c1.209-3.667,0.803-6.534-1.21-8.547c-1.817-1.817-4.544-2.552-7.723-2.081c-0.278,0.041-0.472,0.3-0.432,0.578c0.041,0.278,0.299,0.472,0.578,0.432c2.765-0.408,5.121,0.199,6.65,1.729c1.657,1.657,1.992,4.022,0.995,7.033c-0.085,0.256-0.175,0.512-0.267,0.769c-0.009,0.026-0.017,0.052-0.024,0.079c-0.134,0.327-0.255,0.652-0.374,0.98c-0.072,0.199-0.143,0.399-0.211,0.599c-0.068,0.199-0.11,0.402-0.11,0.605c0,0.405,0.148,0.811,0.443,1.128c0.087,0.094,0.181,0.176,0.279,0.248c-0.387,1.664-1.132,4.618-1.468,5.722c-0.15-0.665-0.31-1.426-0.462-2.253c-0.255-1.387-0.442-2.704-0.502-3.178c-0.044-0.277-0.305-0.466-0.578-0.422c-0.278,0.044-0.467,0.301-0.422,0.578c0.062,0.486,0.25,1.813,0.507,3.214c0.266,1.443,0.537,2.769,0.633,3.165c0.045,0.186,0.167,0.342,0.334,0.428c0.098,0.051,0.205,0.076,0.311,0.076c0.072,0,0.143-0.012,0.211-0.035c0.246-0.083,0.413-0.306,0.417-0.567c0.002-0.119,0.224-2.944,1.584-7.277c0.152,0.053,0.309,0.079,0.465,0.079c0.263,0,0.525-0.071,0.757-0.212c0.392-0.237,0.669-0.622,0.743-1.033c0.126-0.693,0.324-1.377,0.587-2.037c0.056-0.14,0.114-0.279,0.173-0.417C43.636,31.085,42.757,29.564,42.22,28.263z"/>
  <path fill="#0277bd" d="M14.756,27.946c-0.801,0.8-1.855,1.241-2.965,1.241c-0.223,0-0.45-0.019-0.676-0.057c-0.274-0.046-0.535,0.139-0.581,0.414c-0.046,0.275,0.139,0.535,0.414,0.581c0.275,0.046,0.554,0.07,0.842,0.07c1.389,0,2.705-0.547,3.691-1.533c0.198-0.198,0.198-0.52,0-0.718C15.283,27.747,14.954,27.747,14.756,27.946z"/>
  <path fill="#0277bd" d="M16.662,23.727c-0.018-0.276-0.252-0.486-0.527-0.467c-0.276,0.018-0.486,0.251-0.467,0.527c0.018,0.273,0.027,0.549,0.027,0.82c0,0.396-0.024,0.795-0.071,1.185c-0.036,0.277,0.16,0.532,0.438,0.568c0.022,0.003,0.045,0.004,0.067,0.004c0.25,0,0.468-0.187,0.501-0.442c0.053-0.435,0.08-0.88,0.08-1.315C16.709,24.324,16.693,24.024,16.662,23.727z"/>
  <path fill="#0277bd" d="M15.033,31.088c-0.276,0.017-0.486,0.25-0.469,0.526c0.016,0.253,0.023,0.51,0.023,0.761c0,0.397-0.024,0.797-0.071,1.188c-0.036,0.277,0.16,0.532,0.438,0.568c0.022,0.003,0.045,0.004,0.067,0.004c0.25,0,0.468-0.187,0.501-0.442c0.053-0.437,0.08-0.882,0.08-1.318c0-0.28-0.008-0.566-0.026-0.847C15.542,31.28,15.31,31.069,15.033,31.088z"/>
  <path fill="#0277bd" d="M19.364,30.776c-0.276,0.017-0.486,0.25-0.469,0.526c0.016,0.253,0.023,0.51,0.023,0.761c0,0.397-0.024,0.797-0.071,1.188c-0.036,0.277,0.16,0.532,0.438,0.568c0.022,0.003,0.045,0.004,0.067,0.004c0.25,0,0.468-0.187,0.501-0.442c0.053-0.437,0.08-0.882,0.08-1.318c0-0.28-0.008-0.566-0.026-0.847C19.873,30.968,19.641,30.757,19.364,30.776z"/>
  <path fill="#0277bd" d="M23.695,30.464c-0.276,0.017-0.486,0.25-0.469,0.526c0.016,0.253,0.023,0.51,0.023,0.761c0,0.397-0.024,0.797-0.071,1.188c-0.036,0.277,0.16,0.532,0.438,0.568c0.022,0.003,0.045,0.004,0.067,0.004c0.25,0,0.468-0.187,0.501-0.442c0.053-0.437,0.08-0.882,0.08-1.318c0-0.28-0.008-0.566-0.026-0.847C24.204,30.656,23.972,30.445,23.695,30.464z"/>
</svg> 